<svg width="31" height="31" viewBox="0 0 31 31" fill="none" xmlns="http://www.w3.org/2000/svg">
<g clip-path="url(#clip0_25_10)">
<path d="M15.5 9.44531C14.3025 9.44531 13.1319 9.80041 12.1362 10.4657C11.1405 11.131 10.3645 12.0766 9.9062 13.183C9.44794 14.2893 9.32803 15.5067 9.56165 16.6812C9.79528 17.8557 10.3719 18.9345 11.2187 19.7813C12.0655 20.6281 13.1443 21.2047 14.3188 21.4383C15.4933 21.672 16.7107 21.5521 17.817 21.0938C18.9234 20.6355 19.869 19.8595 20.5343 18.8638C21.1996 17.8681 21.5547 16.6975 21.5547 15.5C21.5547 13.8942 20.9168 12.3542 19.7813 11.2187C18.6458 10.0832 17.1058 9.44531 15.5 9.44531ZM15.5 20.1016C14.5899 20.1016 13.7002 19.8317 12.9435 19.3261C12.1868 18.8204 11.597 18.1018 11.2487 17.2609C10.9004 16.4201 10.8093 15.4949 10.9869 14.6023C11.1644 13.7097 11.6027 12.8897 12.2462 12.2462C12.8897 11.6027 13.7097 11.1644 14.6023 10.9869C15.4949 10.8093 16.4201 10.9004 17.2609 11.2487C18.1018 11.597 18.8204 12.1868 19.3261 12.9435C19.8317 13.7002 20.1016 14.5899 20.1016 15.5C20.1016 16.7204 19.6168 17.8908 18.7538 18.7538C17.8908 19.6168 16.7204 20.1016 15.5 20.1016V20.1016Z" fill="white"/>
<path d="M29.3047 11.625H27.142C27.0916 11.6246 27.0426 11.6086 27.0018 11.579C26.961 11.5495 26.9304 11.508 26.9143 11.4603C26.7735 11.0606 26.6119 10.6685 26.4299 10.2857C26.4072 10.2405 26.3992 10.1894 26.407 10.1394C26.4148 10.0895 26.4381 10.0433 26.4735 10.0072L28.0017 8.47656C28.1592 8.31914 28.2841 8.13224 28.3693 7.92654C28.4545 7.72085 28.4983 7.50038 28.4983 7.27773C28.4983 7.05509 28.4545 6.83462 28.3693 6.62893C28.2841 6.42323 28.1592 6.23633 28.0017 6.07891L24.9187 2.99828C24.7612 2.84084 24.5743 2.71595 24.3687 2.63074C24.163 2.54553 23.9425 2.50167 23.7198 2.50167C23.4972 2.50167 23.2767 2.54553 23.071 2.63074C22.8653 2.71595 22.6784 2.84084 22.521 2.99828L20.9928 4.52648C20.9567 4.56191 20.9105 4.58516 20.8606 4.59298C20.8106 4.6008 20.7595 4.59279 20.7143 4.57008C20.3315 4.38808 19.9395 4.2264 19.5397 4.0857C19.492 4.06959 19.4505 4.039 19.421 3.9982C19.3914 3.9574 19.3754 3.90841 19.375 3.85805V1.69531C19.375 1.24569 19.1964 0.814478 18.8785 0.496546C18.5605 0.178613 18.1293 0 17.6797 0H13.3203C12.8707 0 12.4395 0.178613 12.1215 0.496546C11.8036 0.814478 11.625 1.24569 11.625 1.69531V3.85805C11.6246 3.90841 11.6086 3.9574 11.579 3.9982C11.5495 4.039 11.508 4.06959 11.4603 4.0857C11.0606 4.22645 10.6685 4.38814 10.2857 4.57008C10.2405 4.59279 10.1894 4.6008 10.1394 4.59298C10.0895 4.58516 10.0433 4.56191 10.0072 4.52648L8.47656 2.99828C8.31914 2.84084 8.13224 2.71595 7.92654 2.63074C7.72085 2.54553 7.50038 2.50167 7.27773 2.50167C7.05509 2.50167 6.83462 2.54553 6.62893 2.63074C6.42323 2.71595 6.23633 2.84084 6.07891 2.99828L2.99828 6.08133C2.84084 6.23875 2.71595 6.42565 2.63074 6.63135C2.54553 6.83704 2.50167 7.05751 2.50167 7.28016C2.50167 7.5028 2.54553 7.72327 2.63074 7.92896C2.71595 8.13466 2.84084 8.32156 2.99828 8.47898L4.52648 10.0072C4.56191 10.0433 4.58516 10.0895 4.59298 10.1394C4.6008 10.1894 4.59279 10.2405 4.57008 10.2857C4.38808 10.6685 4.2264 11.0605 4.0857 11.4603C4.06959 11.508 4.039 11.5495 3.9982 11.579C3.9574 11.6086 3.90841 11.6246 3.85805 11.625H1.69531C1.24569 11.625 0.814478 11.8036 0.496546 12.1215C0.178613 12.4395 0 12.8707 0 13.3203L0 17.6797C0 18.1293 0.178613 18.5605 0.496546 18.8785C0.814478 19.1964 1.24569 19.375 1.69531 19.375H3.85805C3.90841 19.3754 3.9574 19.3914 3.9982 19.421C4.039 19.4505 4.06959 19.492 4.0857 19.5397C4.22645 19.9394 4.38814 20.3315 4.57008 20.7143C4.59279 20.7595 4.6008 20.8106 4.59298 20.8606C4.58516 20.9105 4.56191 20.9567 4.52648 20.9928L2.99828 22.5234C2.84084 22.6809 2.71595 22.8678 2.63074 23.0735C2.54553 23.2792 2.50167 23.4996 2.50167 23.7223C2.50167 23.9449 2.54553 24.1654 2.63074 24.3711C2.71595 24.5768 2.84084 24.7637 2.99828 24.9211L6.08133 28.0041C6.23875 28.1616 6.42565 28.2865 6.63135 28.3717C6.83704 28.4569 7.05751 28.5007 7.28016 28.5007C7.5028 28.5007 7.72327 28.4569 7.92896 28.3717C8.13466 28.2865 8.32156 28.1616 8.47898 28.0041L10.0072 26.4759C10.0433 26.4405 10.0895 26.4173 10.1394 26.4094C10.1894 26.4016 10.2405 26.4096 10.2857 26.4323C10.6685 26.6143 11.0605 26.776 11.4603 26.9167C11.508 26.9328 11.5495 26.9634 11.579 27.0042C11.6086 27.045 11.6246 27.094 11.625 27.1444V29.3047C11.625 29.7543 11.8036 30.1855 12.1215 30.5035C12.4395 30.8214 12.8707 31 13.3203 31H17.6797C18.1293 31 18.5605 30.8214 18.8785 30.5035C19.1964 30.1855 19.375 29.7543 19.375 29.3047V27.142C19.3754 27.0916 19.3914 27.0426 19.421 27.0018C19.4505 26.961 19.492 26.9304 19.5397 26.9143C19.9394 26.7735 20.3315 26.6119 20.7143 26.4299C20.7595 26.4072 20.8106 26.3992 20.8606 26.407C20.9105 26.4148 20.9567 26.4381 20.9928 26.4735L22.5234 28.0017C22.6809 28.1592 22.8678 28.2841 23.0735 28.3693C23.2792 28.4545 23.4996 28.4983 23.7223 28.4983C23.9449 28.4983 24.1654 28.4545 24.3711 28.3693C24.5768 28.2841 24.7637 28.1592 24.9211 28.0017L28.0041 24.9187C28.1616 24.7612 28.2865 24.5743 28.3717 24.3687C28.4569 24.163 28.5007 23.9425 28.5007 23.7198C28.5007 23.4972 28.4569 23.2767 28.3717 23.071C28.2865 22.8653 28.1616 22.6784 28.0041 22.521L26.4759 20.9928C26.4405 20.9567 26.4173 20.9105 26.4094 20.8606C26.4016 20.8106 26.4096 20.7595 26.4323 20.7143C26.6143 20.3315 26.776 19.9395 26.9167 19.5397C26.9328 19.492 26.9634 19.4505 27.0042 19.421C27.045 19.3914 27.094 19.3754 27.1444 19.375H29.3047C29.7543 19.375 30.1855 19.1964 30.5035 18.8785C30.8214 18.5605 31 18.1293 31 17.6797V13.3203C31 12.8707 30.8214 12.4395 30.5035 12.1215C30.1855 11.8036 29.7543 11.625 29.3047 11.625V11.625ZM29.5469 17.6797C29.5469 17.7439 29.5214 17.8055 29.4759 17.8509C29.4305 17.8964 29.3689 17.9219 29.3047 17.9219H27.142C26.7907 17.9223 26.4482 18.0318 26.1618 18.2353C25.8755 18.4387 25.6594 18.7261 25.5435 19.0577C25.4196 19.4089 25.2773 19.7532 25.1173 20.0895C24.9638 20.4064 24.9128 20.7632 24.9714 21.1104C25.03 21.4576 25.1953 21.7779 25.4442 22.027L26.9724 23.5552C27.0175 23.6005 27.0428 23.6619 27.0428 23.7259C27.0428 23.7899 27.0175 23.8513 26.9724 23.8966L23.8918 26.9748C23.8464 27.02 23.785 27.0453 23.7211 27.0453C23.6571 27.0453 23.5957 27.02 23.5503 26.9748L22.0221 25.4466C21.7731 25.1977 21.4528 25.0324 21.1056 24.9738C20.7584 24.9153 20.4015 24.9662 20.0846 25.1197C19.7476 25.2798 19.4024 25.4221 19.0505 25.5459C18.7193 25.6623 18.4324 25.8785 18.2294 26.1648C18.0264 26.4511 17.9173 26.7934 17.917 27.1444V29.3047C17.917 29.3689 17.8915 29.4305 17.8461 29.4759C17.8007 29.5214 17.7391 29.5469 17.6748 29.5469H13.3203C13.2561 29.5469 13.1945 29.5214 13.1491 29.4759C13.1036 29.4305 13.0781 29.3689 13.0781 29.3047V27.142C13.0777 26.7907 12.9682 26.4482 12.7647 26.1618C12.5613 25.8755 12.2739 25.6594 11.9423 25.5435C11.5911 25.4196 11.2468 25.2773 10.9105 25.1173C10.5936 24.9638 10.2368 24.9128 9.8896 24.9714C9.5424 25.03 9.22205 25.1953 8.97305 25.4442L7.44484 26.9724C7.39947 27.0175 7.33808 27.0428 7.2741 27.0428C7.21012 27.0428 7.14874 27.0175 7.10336 26.9724L4.02516 23.8918C3.98005 23.8464 3.95473 23.785 3.95473 23.7211C3.95473 23.6571 3.98005 23.5957 4.02516 23.5503L5.55336 22.0221C5.80232 21.7731 5.96756 21.4528 6.02615 21.1056C6.08474 20.7584 6.03377 20.4015 5.88031 20.0846C5.72017 19.7476 5.57789 19.4024 5.45406 19.0505C5.33707 18.7206 5.12085 18.4351 4.83509 18.233C4.54933 18.0309 4.20803 17.9222 3.85805 17.9219H1.69531C1.63108 17.9219 1.56948 17.8964 1.52406 17.8509C1.47864 17.8055 1.45312 17.7439 1.45312 17.6797V13.3203C1.45312 13.2561 1.47864 13.1945 1.52406 13.1491C1.56948 13.1036 1.63108 13.0781 1.69531 13.0781H3.85805C4.20933 13.0777 4.55181 12.9682 4.83815 12.7647C5.1245 12.5613 5.34056 12.2739 5.45648 11.9423C5.5804 11.5911 5.72268 11.2468 5.88273 10.9105C6.03619 10.5936 6.08716 10.2368 6.02857 9.8896C5.96998 9.5424 5.80474 9.22205 5.55578 8.97305L4.02758 7.44484C3.98247 7.39947 3.95715 7.33808 3.95715 7.2741C3.95715 7.21012 3.98247 7.14874 4.02758 7.10336L7.1082 4.02516C7.15358 3.98005 7.21496 3.95473 7.27895 3.95473C7.34293 3.95473 7.40431 3.98005 7.44969 4.02516L8.97789 5.55336C9.2269 5.80232 9.54724 5.96756 9.89444 6.02615C10.2416 6.08474 10.5985 6.03377 10.9154 5.88031C11.2524 5.72017 11.5976 5.57789 11.9495 5.45406C12.2794 5.33707 12.5649 5.12085 12.767 4.83509C12.9691 4.54933 13.0778 4.20803 13.0781 3.85805V1.69531C13.0781 1.63108 13.1036 1.56948 13.1491 1.52406C13.1945 1.47864 13.2561 1.45312 13.3203 1.45312H17.6797C17.7439 1.45312 17.8055 1.47864 17.8509 1.52406C17.8964 1.56948 17.9219 1.63108 17.9219 1.69531V3.85805C17.9223 4.20933 18.0318 4.55181 18.2353 4.83815C18.4387 5.1245 18.7261 5.34056 19.0577 5.45648C19.4089 5.5804 19.7532 5.72268 20.0895 5.88273C20.4064 6.03619 20.7632 6.08716 21.1104 6.02857C21.4576 5.96998 21.7779 5.80474 22.027 5.55578L23.5552 4.02758C23.6005 3.98247 23.6619 3.95715 23.7259 3.95715C23.7899 3.95715 23.8513 3.98247 23.8966 4.02758L26.9797 7.11063C27.0248 7.156 27.0501 7.21738 27.0501 7.28137C27.0501 7.34535 27.0248 7.40673 26.9797 7.45211L25.4515 8.98031C25.2025 9.22932 25.0373 9.54966 24.9787 9.89687C24.9201 10.2441 24.9711 10.6009 25.1245 10.9178C25.2847 11.2548 25.427 11.6 25.5508 11.952C25.6671 12.2831 25.8833 12.57 26.1697 12.773C26.456 12.976 26.7982 13.0852 27.1492 13.0854H29.3047C29.3689 13.0854 29.4305 13.1109 29.4759 13.1563C29.5214 13.2017 29.5469 13.2633 29.5469 13.3276V17.6797Z" fill="white"/>
</g>
<defs>
<clipPath id="clip0_25_10">
<rect width="31" height="31" fill="white"/>
</clipPath>
</defs>
</svg>
