<svg width="30" height="30" viewBox="0 0 30 30" fill="none" xmlns="http://www.w3.org/2000/svg">
<path d="M16.3125 10.4062H14.625C14.1563 10.4062 13.7812 10.7812 13.7812 11.25C13.7812 11.7187 14.1563 12.0937 14.625 12.0937H15.4219C15.8906 12.0937 16.2656 12.4687 16.2656 12.9375C16.2656 13.4062 15.8906 13.7812 15.4219 13.7812H13.6406" stroke="#4C5159" stroke-width="2" stroke-miterlimit="10"/>
<path d="M15.0469 9.5625V10.4063" stroke="#4C5159" stroke-width="2" stroke-miterlimit="10"/>
<path d="M15.0469 13.7812V14.625" stroke="#4C5159" stroke-width="2" stroke-miterlimit="10"/>
<path d="M23.6719 17.1562H6.32813C5.8125 17.1562 5.39062 16.7344 5.39062 16.2187V7.92187C5.39062 7.40625 5.8125 6.98438 6.32813 6.98438H23.7188C24.2344 6.98438 24.6563 7.40625 24.6563 7.92187V16.2187C24.6094 16.7344 24.1875 17.1562 23.6719 17.1562Z" stroke="#4C5159" stroke-width="2" stroke-miterlimit="10"/>
<path d="M8.39062 7.03125C8.39062 8.67188 7.07812 10.0312 5.39062 10.0312" stroke="#4C5159" stroke-width="2" stroke-miterlimit="10"/>
<path d="M21.6094 7.03125C21.6094 8.67188 22.9219 10.0312 24.6094 10.0312" stroke="#4C5159" stroke-width="2" stroke-miterlimit="10"/>
<path d="M8.39062 17.1562C8.39062 15.5156 7.07812 14.1562 5.39062 14.1562" stroke="#4C5159" stroke-width="2" stroke-miterlimit="10"/>
<path d="M21.6094 17.1562C21.6094 15.5156 22.9219 14.1562 24.6094 14.1562" stroke="#4C5159" stroke-width="2" stroke-miterlimit="10"/>
<path d="M15 15.6094C16.9416 15.6094 18.5156 14.0354 18.5156 12.0938C18.5156 10.1521 16.9416 8.57812 15 8.57812C13.0584 8.57812 11.4844 10.1521 11.4844 12.0938C11.4844 14.0354 13.0584 15.6094 15 15.6094Z" stroke="#4C5159" stroke-width="2" stroke-miterlimit="10"/>
<path d="M9.28125 12.0938H10.4063" stroke="#4C5159" stroke-width="2" stroke-miterlimit="10"/>
<path d="M19.4531 12.0938H20.5781" stroke="#4C5159" stroke-width="2" stroke-miterlimit="10"/>
<path d="M5.39062 19.2656H24.6094" stroke="#4C5159" stroke-width="2" stroke-miterlimit="10"/>
<path d="M5.39062 21.0938H24.6094" stroke="#4C5159" stroke-width="2" stroke-miterlimit="10"/>
<path d="M5.39062 22.9688H24.6094" stroke="#4C5159" stroke-width="2" stroke-miterlimit="10"/>
</svg>
