<svg width="30" height="30" viewBox="0 0 30 30" fill="none" xmlns="http://www.w3.org/2000/svg">
<g clip-path="url(#clip0_25_93)">
<path d="M3.0375 12.7787H0V10H9.41438V12.7787H6.37688V20.8403H3.03656L3.0375 12.7787ZM9.93188 10.0009H19.0678V12.7797H13.2722V14.1325H19.0678V16.7106H13.2722V18.0634H19.0678V20.8422H9.93188V10.0009ZM22.9688 18.0672H24.2775C26.3578 18.0672 26.6606 16.3778 26.6606 15.3569C26.6606 14.6781 26.4356 12.7787 24.0188 12.7787H22.9491V18.0672H22.9688ZM19.6294 10.0009H25.1128C28.7259 10.0009 30.0009 12.6719 30.0009 15.4009C30.0009 18.7262 28.2384 20.8403 24.4594 20.8403H19.6303L19.6294 10.0009Z" fill="#2862F7"/>
</g>
<defs>
<clipPath id="clip0_25_93">
<rect width="30" height="30" fill="white"/>
</clipPath>
</defs>
</svg>
