<svg width="32" height="32" viewBox="0 0 32 32" fill="none" xmlns="http://www.w3.org/2000/svg">
<g clip-path="url(#clip0_25_15)">
<path d="M9.29401 26.852C7.48901 26.852 5.68401 26.852 3.88001 26.852C3.19901 26.852 3.69501 27.254 4.12101 27.254C5.92601 27.254 7.73101 27.254 9.53501 27.254C10.216 27.253 9.72001 26.852 9.29401 26.852Z" fill="white"/>
<path d="M16.494 10.221C16.494 7.45599 16.494 4.68999 16.494 1.92499C17.202 2.63299 17.91 3.34099 18.619 4.04899C18.832 4.26199 19.744 4.03899 19.572 3.86699C18.54 2.83599 17.508 1.80399 16.477 0.772989C16.381 0.676989 16.183 0.640989 15.99 0.652989C15.746 0.624989 15.506 0.663989 15.506 0.788989C15.506 0.809989 15.506 0.831989 15.506 0.852989C14.493 1.86599 13.48 2.87799 12.467 3.89099C12.2 4.15799 13.153 4.21499 13.344 4.02399C14.065 3.30299 14.786 2.58299 15.507 1.86199C15.507 4.59799 15.507 7.33399 15.507 10.07C15.506 10.379 16.494 10.475 16.494 10.221Z" fill="white"/>
<path d="M31.755 15.295C31.726 15.295 31.698 15.295 31.669 15.295C31.667 15.005 31.67 14.715 31.665 14.425C31.644 13.139 31.543 11.992 30.137 11.449C28.24 10.716 25.334 11.269 23.384 11.269C18.815 11.269 14.246 11.269 9.67703 11.269C7.37503 11.269 4.19103 10.668 1.94403 11.378C0.37103 11.875 0.33303 13.224 0.33303 14.592C0.33303 14.858 0.33303 15.124 0.33303 15.39C0.04303 15.515 -0.20197 15.72 0.24403 15.72C0.27403 15.72 0.30403 15.72 0.33303 15.72C0.33303 17.001 0.33303 18.282 0.33303 19.564C0.30703 19.564 0.28103 19.564 0.25503 19.564C-0.19797 19.564 0.04503 19.784 0.33303 19.915C0.33303 20.42 0.33303 20.924 0.33303 21.429C0.33303 23.668 0.28303 25.914 0.33303 28.153C0.37003 29.799 0.86503 30.875 2.64703 31.164C2.67603 31.169 2.70703 31.168 2.73703 31.169C2.79403 31.182 2.85303 31.191 2.91103 31.191C10.081 31.191 17.251 31.191 24.421 31.191C26.061 31.191 29.727 31.867 31.047 30.492C31.928 29.575 31.664 28.075 31.664 26.907C31.664 24.701 31.664 22.494 31.664 20.288C31.664 20.196 31.665 20.103 31.665 20.01C31.691 20.01 31.717 20.01 31.742 20.01C32.194 20.01 31.954 19.792 31.666 19.661C31.67 18.315 31.675 16.969 31.668 15.623C31.959 15.498 32.198 15.295 31.755 15.295ZM2.92503 11.679C4.88103 11.229 7.47203 11.679 9.46603 11.679C13.451 11.679 17.436 11.679 21.421 11.679C23.083 11.679 24.744 11.679 26.406 11.679C27.144 11.679 28.419 11.425 29.122 11.679C30.373 12.131 30.778 13.631 30.864 15.295C20.953 15.295 11.042 15.295 1.13103 15.295C1.24703 13.51 1.68703 11.964 2.92503 11.679ZM1.10903 15.72C11.033 15.72 20.957 15.72 30.88 15.72C30.909 17.106 30.753 18.544 30.694 19.564C20.878 19.564 11.063 19.564 1.24703 19.564C1.16503 18.46 1.06103 17.049 1.10903 15.72ZM30.671 28.958C30.259 31.709 25.544 30.781 23.59 30.781C16.683 30.781 9.77703 30.781 2.87003 30.781C2.04603 30.576 1.46303 29.359 1.32903 28.577C1.23003 27.998 1.32903 27.311 1.32903 26.724C1.32903 24.827 1.32903 22.929 1.32903 21.032C1.32903 20.771 1.30803 20.419 1.27903 20.012C11.078 20.012 20.876 20.012 30.675 20.012C30.674 20.071 30.67 20.136 30.67 20.19C30.671 23.003 31.088 26.169 30.671 28.958Z" fill="white"/>
<path d="M18.254 23.612C13.587 23.612 8.91999 23.612 4.25299 23.612C3.66299 23.612 3.66799 24.012 4.26099 24.012C8.92799 24.012 13.595 24.012 18.262 24.012C18.851 24.012 18.847 23.612 18.254 23.612Z" fill="white"/>
</g>
<defs>
<clipPath id="clip0_25_15">
<rect width="32" height="32" fill="white"/>
</clipPath>
</defs>
</svg>
