<svg width="16" height="16" viewBox="0 0 16 16" fill="none" xmlns="http://www.w3.org/2000/svg">
<path d="M14 4.5H5.5C5.36739 4.5 5.24021 4.44732 5.14645 4.35355C5.05268 4.25979 5 4.13261 5 4C5 3.86739 5.05268 3.74021 5.14645 3.64645C5.24021 3.55268 5.36739 3.5 5.5 3.5H14C14.1326 3.5 14.2598 3.55268 14.3536 3.64645C14.4473 3.74021 14.5 3.86739 14.5 4C14.5 4.13261 14.4473 4.25979 14.3536 4.35355C14.2598 4.44732 14.1326 4.5 14 4.5Z" fill="#2862F7"/>
<path d="M3.5 4.5H2C1.86739 4.5 1.74021 4.44732 1.64645 4.35355C1.55268 4.25979 1.5 4.13261 1.5 4C1.5 3.86739 1.55268 3.74021 1.64645 3.64645C1.74021 3.55268 1.86739 3.5 2 3.5H3.5C3.63261 3.5 3.75979 3.55268 3.85355 3.64645C3.94732 3.74021 4 3.86739 4 4C4 4.13261 3.94732 4.25979 3.85355 4.35355C3.75979 4.44732 3.63261 4.5 3.5 4.5Z" fill="#2862F7"/>
<path d="M10.5 8.5H2C1.86739 8.5 1.74021 8.44732 1.64645 8.35355C1.55268 8.25979 1.5 8.13261 1.5 8C1.5 7.86739 1.55268 7.74021 1.64645 7.64645C1.74021 7.55268 1.86739 7.5 2 7.5H10.5C10.6326 7.5 10.7598 7.55268 10.8536 7.64645C10.9473 7.74021 11 7.86739 11 8C11 8.13261 10.9473 8.25979 10.8536 8.35355C10.7598 8.44732 10.6326 8.5 10.5 8.5Z" fill="#2862F7"/>
<path d="M5.5 12.5H2C1.86739 12.5 1.74021 12.4473 1.64645 12.3536C1.55268 12.2598 1.5 12.1326 1.5 12C1.5 11.8674 1.55268 11.7402 1.64645 11.6464C1.74021 11.5527 1.86739 11.5 2 11.5H5.5C5.63261 11.5 5.75979 11.5527 5.85355 11.6464C5.94732 11.7402 6 11.8674 6 12C6 12.1326 5.94732 12.2598 5.85355 12.3536C5.75979 12.4473 5.63261 12.5 5.5 12.5Z" fill="#2862F7"/>
<path d="M4.5 5.5C4.20333 5.5 3.91332 5.41203 3.66665 5.2472C3.41997 5.08238 3.22771 4.84811 3.11418 4.57403C3.00065 4.29994 2.97094 3.99834 3.02882 3.70737C3.0867 3.41639 3.22956 3.14912 3.43934 2.93934C3.64912 2.72956 3.91639 2.5867 4.20737 2.52882C4.49834 2.47094 4.79994 2.50065 5.07403 2.61418C5.34811 2.72771 5.58238 2.91997 5.7472 3.16665C5.91203 3.41332 6 3.70333 6 4C6 4.39783 5.84197 4.77936 5.56066 5.06066C5.27936 5.34197 4.89783 5.5 4.5 5.5ZM4.5 3.5C4.40111 3.5 4.30444 3.52933 4.22222 3.58427C4.13999 3.63921 4.0759 3.7173 4.03806 3.80866C4.00022 3.90002 3.99032 4.00056 4.00961 4.09755C4.0289 4.19454 4.07652 4.28363 4.14645 4.35355C4.21637 4.42348 4.30546 4.4711 4.40246 4.49039C4.49945 4.50969 4.59998 4.49978 4.69134 4.46194C4.78271 4.4241 4.86079 4.36001 4.91574 4.27779C4.97068 4.19556 5 4.09889 5 4C5 3.86739 4.94732 3.74022 4.85355 3.64645C4.75979 3.55268 4.63261 3.5 4.5 3.5Z" fill="#2862F7"/>
<path d="M11.5 9.5C11.2033 9.5 10.9133 9.41203 10.6666 9.24721C10.42 9.08238 10.2277 8.84812 10.1142 8.57403C10.0006 8.29994 9.97094 7.99834 10.0288 7.70737C10.0867 7.41639 10.2296 7.14912 10.4393 6.93934C10.6491 6.72956 10.9164 6.5867 11.2074 6.52882C11.4983 6.47094 11.7999 6.50065 12.074 6.61418C12.3481 6.72771 12.5824 6.91997 12.7472 7.16665C12.912 7.41332 13 7.70333 13 8C13 8.39783 12.842 8.77936 12.5607 9.06066C12.2794 9.34197 11.8978 9.5 11.5 9.5ZM11.5 7.5C11.4011 7.5 11.3044 7.52933 11.2222 7.58427C11.14 7.63921 11.0759 7.7173 11.0381 7.80866C11.0002 7.90002 10.9903 8.00056 11.0096 8.09755C11.0289 8.19454 11.0765 8.28363 11.1464 8.35355C11.2164 8.42348 11.3055 8.4711 11.4025 8.49039C11.4994 8.50969 11.6 8.49978 11.6913 8.46194C11.7827 8.4241 11.8608 8.36001 11.9157 8.27779C11.9707 8.19556 12 8.09889 12 8C12 7.86739 11.9473 7.74022 11.8536 7.64645C11.7598 7.55268 11.6326 7.5 11.5 7.5Z" fill="#2862F7"/>
<path d="M6.5 13.5C6.20333 13.5 5.91332 13.412 5.66665 13.2472C5.41997 13.0824 5.22771 12.8481 5.11418 12.574C5.00065 12.2999 4.97094 11.9983 5.02882 11.7074C5.0867 11.4164 5.22956 11.1491 5.43934 10.9393C5.64912 10.7296 5.91639 10.5867 6.20737 10.5288C6.49834 10.4709 6.79994 10.5006 7.07403 10.6142C7.34812 10.7277 7.58238 10.92 7.74721 11.1666C7.91203 11.4133 8 11.7033 8 12C8 12.3978 7.84197 12.7794 7.56066 13.0607C7.27936 13.342 6.89783 13.5 6.5 13.5ZM6.5 11.5C6.40111 11.5 6.30444 11.5293 6.22222 11.5843C6.13999 11.6392 6.0759 11.7173 6.03806 11.8087C6.00022 11.9 5.99032 12.0006 6.00961 12.0975C6.0289 12.1945 6.07652 12.2836 6.14645 12.3536C6.21637 12.4235 6.30547 12.4711 6.40246 12.4904C6.49945 12.5097 6.59998 12.4998 6.69134 12.4619C6.78271 12.4241 6.86079 12.36 6.91574 12.2778C6.97068 12.1956 7 12.0989 7 12C7 11.8674 6.94732 11.7402 6.85355 11.6464C6.75979 11.5527 6.63261 11.5 6.5 11.5Z" fill="#2862F7"/>
<path d="M14 8.5H12.5C12.3674 8.5 12.2402 8.44732 12.1464 8.35355C12.0527 8.25979 12 8.13261 12 8C12 7.86739 12.0527 7.74021 12.1464 7.64645C12.2402 7.55268 12.3674 7.5 12.5 7.5H14C14.1326 7.5 14.2598 7.55268 14.3536 7.64645C14.4473 7.74021 14.5 7.86739 14.5 8C14.5 8.13261 14.4473 8.25979 14.3536 8.35355C14.2598 8.44732 14.1326 8.5 14 8.5Z" fill="#2862F7"/>
<path d="M14 12.5H7.5C7.36739 12.5 7.24021 12.4473 7.14645 12.3536C7.05268 12.2598 7 12.1326 7 12C7 11.8674 7.05268 11.7402 7.14645 11.6464C7.24021 11.5527 7.36739 11.5 7.5 11.5H14C14.1326 11.5 14.2598 11.5527 14.3536 11.6464C14.4473 11.7402 14.5 11.8674 14.5 12C14.5 12.1326 14.4473 12.2598 14.3536 12.3536C14.2598 12.4473 14.1326 12.5 14 12.5Z" fill="#2862F7"/>
</svg>
