<svg width="31" height="31" viewBox="0 0 31 31" fill="none" xmlns="http://www.w3.org/2000/svg">
<g clip-path="url(#clip0_25_24)">
<path d="M30.5775 13.2524L16.3692 0.335685C16.1314 0.119302 15.8214 -0.000610352 15.4999 -0.000610352C15.1784 -0.000610352 14.8684 0.119302 14.6306 0.335685L0.422273 13.2524C0.229312 13.4277 0.0939532 13.6574 0.0339973 13.9112C-0.0259586 14.165 -0.00770348 14.4309 0.0863618 14.6741C0.180427 14.9173 0.345897 15.1264 0.561011 15.2738C0.776124 15.4211 1.03081 15.5 1.29156 15.4999H3.8749V29.7082C3.8749 30.0508 4.01098 30.3793 4.25322 30.6215C4.49545 30.8638 4.82399 30.9999 5.16656 30.9999H25.8332C26.1758 30.9999 26.5043 30.8638 26.7466 30.6215C26.9888 30.3793 27.1249 30.0508 27.1249 29.7082V15.4999H29.7082C29.969 15.5 30.2237 15.4211 30.4388 15.2738C30.6539 15.1264 30.8194 14.9173 30.9134 14.6741C31.0075 14.4309 31.0258 14.165 30.9658 13.9112C30.9058 13.6574 30.7705 13.4277 30.5775 13.2524V13.2524ZM12.9166 28.4165V23.2499H18.0832V28.4165H12.9166ZM25.8332 12.9165C25.4907 12.9165 25.1621 13.0526 24.9199 13.2948C24.6776 13.5371 24.5416 13.8656 24.5416 14.2082V28.4165H20.6666V23.2499C20.6666 22.5647 20.3944 21.9076 19.9099 21.4232C19.4255 20.9387 18.7684 20.6665 18.0832 20.6665H12.9166C12.2314 20.6665 11.5743 20.9387 11.0899 21.4232C10.6054 21.9076 10.3332 22.5647 10.3332 23.2499V28.4165H6.45823V14.2082C6.45823 13.8656 6.32214 13.5371 6.07991 13.2948C5.83768 13.0526 5.50914 12.9165 5.16656 12.9165H4.63311L15.4999 3.03785L26.3667 12.9165H25.8332Z" fill="white"/>
<path d="M11.625 14.2083C11.625 14.9747 11.8523 15.7239 12.2781 16.3611C12.7038 16.9984 13.309 17.4951 14.0171 17.7883C14.7252 18.0816 15.5043 18.1584 16.256 18.0089C17.0077 17.8593 17.6981 17.4903 18.24 16.9484C18.782 16.4064 19.151 15.716 19.3005 14.9643C19.4501 14.2126 19.3733 13.4335 19.08 12.7254C18.7867 12.0174 18.2901 11.4122 17.6528 10.9864C17.0156 10.5606 16.2664 10.3333 15.5 10.3333C14.4723 10.3333 13.4867 10.7416 12.76 11.4683C12.0333 12.195 11.625 13.1806 11.625 14.2083ZM16.7917 14.2083C16.7917 14.4638 16.7159 14.7135 16.574 14.9259C16.4321 15.1383 16.2303 15.3039 15.9943 15.4017C15.7583 15.4994 15.4986 15.525 15.248 15.4752C14.9974 15.4253 14.7673 15.3023 14.5867 15.1217C14.406 14.941 14.283 14.7109 14.2332 14.4603C14.1833 14.2097 14.2089 13.95 14.3067 13.714C14.4044 13.478 14.57 13.2763 14.7824 13.1343C14.9948 12.9924 15.2445 12.9166 15.5 12.9166C15.8426 12.9166 16.1711 13.0527 16.4133 13.295C16.6556 13.5372 16.7917 13.8657 16.7917 14.2083Z" fill="white"/>
</g>
<defs>
<clipPath id="clip0_25_24">
<rect width="31" height="31" fill="white"/>
</clipPath>
</defs>
</svg>
