<svg width="30" height="30" viewBox="0 0 30 30" fill="none" xmlns="http://www.w3.org/2000/svg">
<path d="M14.2031 17.1387C14.5195 16.8223 15.0644 16.8223 15.3808 17.1387L19.8925 21.6504C20.7246 22.4824 21.832 22.9395 23.0039 22.9395H23.8886L18.1992 28.6289C16.4238 30.3574 13.541 30.3574 11.7656 28.6289L6.05271 22.9219H6.59763C7.7695 22.9219 8.87692 22.4648 9.70895 21.6328L14.2031 17.1387ZM15.3808 12.8262C15.0058 13.1484 14.5254 13.1543 14.2031 12.8262L9.70895 8.33203C8.87692 7.44727 7.7695 7.04297 6.59763 7.04297H6.05271L11.7597 1.3336C13.541 -0.444491 16.4238 -0.444491 18.1992 1.3336L23.8945 7.02539H23.0039C21.832 7.02539 20.7246 7.48242 19.8925 8.31445L15.3808 12.8262ZM6.59763 8.36133C7.40622 8.36133 8.15036 8.68945 8.77145 9.26367L13.2656 13.7578C13.6875 14.127 14.2383 14.3906 14.7949 14.3906C15.3457 14.3906 15.8965 14.127 16.3183 13.7578L20.83 9.24609C21.4043 8.67774 22.1953 8.34961 23.0039 8.34961H25.2129L28.6289 11.7656C30.4043 13.541 30.4043 16.4238 28.6289 18.1992L25.2129 21.6152H23.0039C22.1953 21.6152 21.4043 21.2871 20.83 20.7129L16.3183 16.2012C15.5039 15.3867 14.08 15.3867 13.2656 16.207L8.77145 20.6953C8.15036 21.2695 7.40622 21.5977 6.59763 21.5977H4.73317L1.33356 18.1992C-0.444521 16.4238 -0.444521 13.541 1.33356 11.7656L4.73317 8.36133H6.59763Z" fill="#23BA96"/>
</svg>
