<svg width="22" height="22" viewBox="0 0 22 22" fill="none" xmlns="http://www.w3.org/2000/svg">
<g clip-path="url(#clip0_25_80)">
<path d="M0.343642 22C0.290707 22 0.238479 21.9878 0.191027 21.9644C0.143576 21.9409 0.102184 21.9068 0.0700782 21.8647C0.0379724 21.8226 0.0160202 21.7737 0.00593291 21.7217C-0.0041544 21.6698 -0.00210428 21.6162 0.0119234 21.5651L1.41958 16.4089C0.115127 14.095 -0.307969 11.3872 0.228434 8.78565C0.764836 6.1841 2.2245 3.86452 4.33785 2.25531C6.45119 0.646103 9.07545 -0.144034 11.726 0.0308333C14.3765 0.2057 16.8742 1.33376 18.7578 3.20667C20.6414 5.07958 21.7837 7.57082 21.9736 10.2203C22.1636 12.8698 21.3884 15.4985 19.7913 17.621C18.1942 19.7434 15.8829 21.2163 13.2845 21.7675C10.686 22.3187 7.97589 21.9111 5.65458 20.6198L0.431298 21.9948C0.402477 22.0007 0.372957 22.0025 0.343642 22V22ZM5.7027 19.9014C5.76292 19.901 5.82219 19.9164 5.87458 19.9461C8.04406 21.1925 10.5927 21.6076 13.0456 21.1141C15.4984 20.6207 17.6883 19.2523 19.207 17.264C20.7258 15.2756 21.4698 12.8029 21.3006 10.3066C21.1314 7.81035 20.0604 5.46072 18.2871 3.69556C16.5139 1.9304 14.1594 0.870103 11.6624 0.712238C9.16535 0.554373 6.69609 1.30971 4.71468 2.8375C2.73327 4.36529 1.37488 6.56133 0.89261 9.01643C0.410339 11.4715 0.837084 14.0182 2.09333 16.182C2.11619 16.2214 2.131 16.2649 2.1369 16.3101C2.1428 16.3552 2.13967 16.4011 2.1277 16.445L0.840361 21.1715L5.62364 19.9117C5.64956 19.9055 5.67606 19.9021 5.7027 19.9014V19.9014Z" fill="#2A3C9B"/>
<path d="M11 7.90625C10.5581 7.90625 10.1261 7.77521 9.75865 7.52969C9.39121 7.28417 9.10482 6.93521 8.93571 6.52693C8.76659 6.11866 8.72234 5.6694 8.80856 5.23597C8.89477 4.80254 9.10758 4.40442 9.42006 4.09193C9.73254 3.77945 10.1307 3.56665 10.5641 3.48043C10.9975 3.39422 11.4468 3.43847 11.8551 3.60758C12.2633 3.7767 12.6123 4.06308 12.8578 4.43052C13.1033 4.79797 13.2344 5.22996 13.2344 5.67188C13.2344 6.26447 12.999 6.83279 12.5799 7.25182C12.1609 7.67084 11.5926 7.90625 11 7.90625V7.90625ZM11 4.125C10.6941 4.125 10.395 4.21572 10.1406 4.3857C9.88622 4.55567 9.68795 4.79726 9.57088 5.07991C9.4538 5.36257 9.42316 5.67359 9.48285 5.97366C9.54254 6.27372 9.68986 6.54935 9.9062 6.76568C10.1225 6.98202 10.3982 7.12934 10.6982 7.18903C10.9983 7.24872 11.3093 7.21808 11.592 7.101C11.8746 6.98392 12.1162 6.78566 12.2862 6.53127C12.4562 6.27689 12.5469 5.97782 12.5469 5.67188C12.5469 5.26162 12.3839 4.86817 12.0938 4.57807C11.8037 4.28797 11.4103 4.125 11 4.125V4.125Z" fill="#2A3C9B"/>
<path d="M11 18.5625C10.4074 18.5625 9.83909 18.3271 9.42006 17.9081C9.00103 17.489 8.76563 16.9207 8.76563 16.3281V11.6875C8.76562 11.0949 9.00103 10.5266 9.42006 10.1076C9.83909 9.68853 10.4074 9.45313 11 9.45312C11.5926 9.45313 12.1609 9.68853 12.5799 10.1076C12.999 10.5266 13.2344 11.0949 13.2344 11.6875V16.3281C13.2344 16.9207 12.999 17.489 12.5799 17.9081C12.1609 18.3271 11.5926 18.5625 11 18.5625V18.5625ZM11 10.1406C10.5897 10.1406 10.1963 10.3036 9.90619 10.5937C9.6161 10.8838 9.45312 11.2772 9.45312 11.6875V16.3281C9.45312 16.7384 9.6161 17.1318 9.90619 17.4219C10.1963 17.712 10.5897 17.875 11 17.875C11.4103 17.875 11.8037 17.712 12.0938 17.4219C12.3839 17.1318 12.5469 16.7384 12.5469 16.3281V11.6875C12.5469 11.2772 12.3839 10.8838 12.0938 10.5937C11.8037 10.3036 11.4103 10.1406 11 10.1406Z" fill="#2A3C9B"/>
<g clip-path="url(#clip1_25_80)">
<path d="M0.343642 22C0.290707 22 0.238479 21.9878 0.191027 21.9644C0.143576 21.9409 0.102184 21.9068 0.0700782 21.8647C0.0379724 21.8226 0.0160202 21.7737 0.00593291 21.7217C-0.0041544 21.6698 -0.00210428 21.6162 0.0119234 21.5651L1.41958 16.4089C0.115127 14.095 -0.307969 11.3872 0.228434 8.78565C0.764836 6.1841 2.2245 3.86452 4.33785 2.25531C6.45119 0.646103 9.07545 -0.144034 11.726 0.0308333C14.3765 0.2057 16.8742 1.33376 18.7578 3.20667C20.6414 5.07958 21.7837 7.57082 21.9736 10.2203C22.1636 12.8698 21.3884 15.4985 19.7913 17.621C18.1942 19.7434 15.8829 21.2163 13.2845 21.7675C10.686 22.3187 7.97589 21.9111 5.65458 20.6198L0.431298 21.9948C0.402477 22.0007 0.372957 22.0025 0.343642 22V22ZM5.7027 19.9014C5.76292 19.901 5.82219 19.9164 5.87458 19.9461C8.04406 21.1925 10.5927 21.6076 13.0456 21.1141C15.4984 20.6207 17.6883 19.2523 19.207 17.264C20.7258 15.2756 21.4698 12.8029 21.3006 10.3066C21.1314 7.81035 20.0604 5.46072 18.2871 3.69556C16.5139 1.9304 14.1594 0.870103 11.6624 0.712238C9.16535 0.554373 6.69609 1.30971 4.71468 2.8375C2.73327 4.36529 1.37488 6.56133 0.89261 9.01643C0.410339 11.4715 0.837084 14.0182 2.09333 16.182C2.11619 16.2214 2.131 16.2649 2.1369 16.3101C2.1428 16.3552 2.13967 16.4011 2.1277 16.445L0.840361 21.1715L5.62364 19.9117C5.64956 19.9055 5.67606 19.9021 5.7027 19.9014V19.9014Z" fill="#00FFF0"/>
<path d="M11 7.90625C10.5581 7.90625 10.1261 7.77521 9.75865 7.52969C9.39121 7.28417 9.10482 6.93521 8.93571 6.52693C8.76659 6.11866 8.72234 5.6694 8.80856 5.23597C8.89477 4.80254 9.10758 4.40442 9.42006 4.09193C9.73254 3.77945 10.1307 3.56665 10.5641 3.48043C10.9975 3.39422 11.4468 3.43847 11.8551 3.60758C12.2633 3.7767 12.6123 4.06308 12.8578 4.43052C13.1033 4.79797 13.2344 5.22996 13.2344 5.67188C13.2344 6.26447 12.999 6.83279 12.5799 7.25182C12.1609 7.67084 11.5926 7.90625 11 7.90625V7.90625ZM11 4.125C10.6941 4.125 10.395 4.21572 10.1406 4.3857C9.88622 4.55567 9.68795 4.79726 9.57088 5.07991C9.4538 5.36257 9.42316 5.67359 9.48285 5.97366C9.54254 6.27372 9.68986 6.54935 9.9062 6.76568C10.1225 6.98202 10.3982 7.12934 10.6982 7.18903C10.9983 7.24872 11.3093 7.21808 11.592 7.101C11.8746 6.98392 12.1162 6.78566 12.2862 6.53127C12.4562 6.27689 12.5469 5.97782 12.5469 5.67188C12.5469 5.26162 12.3839 4.86817 12.0938 4.57807C11.8037 4.28797 11.4103 4.125 11 4.125V4.125Z" fill="#00FFF0"/>
<path d="M11 18.5625C10.4074 18.5625 9.83909 18.3271 9.42006 17.9081C9.00103 17.489 8.76563 16.9207 8.76563 16.3281V11.6875C8.76562 11.0949 9.00103 10.5266 9.42006 10.1076C9.83909 9.68853 10.4074 9.45313 11 9.45312C11.5926 9.45313 12.1609 9.68853 12.5799 10.1076C12.999 10.5266 13.2344 11.0949 13.2344 11.6875V16.3281C13.2344 16.9207 12.999 17.489 12.5799 17.9081C12.1609 18.3271 11.5926 18.5625 11 18.5625V18.5625ZM11 10.1406C10.5897 10.1406 10.1963 10.3036 9.90619 10.5937C9.6161 10.8838 9.45312 11.2772 9.45312 11.6875V16.3281C9.45312 16.7384 9.6161 17.1318 9.90619 17.4219C10.1963 17.712 10.5897 17.875 11 17.875C11.4103 17.875 11.8037 17.712 12.0938 17.4219C12.3839 17.1318 12.5469 16.7384 12.5469 16.3281V11.6875C12.5469 11.2772 12.3839 10.8838 12.0938 10.5937C11.8037 10.3036 11.4103 10.1406 11 10.1406Z" fill="#00FFF0"/>
</g>
</g>
<defs>
<clipPath id="clip0_25_80">
<rect width="22" height="22" fill="white"/>
</clipPath>
<clipPath id="clip1_25_80">
<rect width="22" height="22" fill="white"/>
</clipPath>
</defs>
</svg>
