<svg width="181" height="35" viewBox="0 0 181 35" fill="none" xmlns="http://www.w3.org/2000/svg">
<path d="M9.36475 27.6836C6.71012 27.6836 4.60238 26.8576 3.0415 25.2056C1.50342 23.5763 0.734375 21.554 0.734375 19.1387L3.98145 17.6006H4.15234V19.1387C4.15234 20.6426 4.5625 21.8787 5.38281 22.8472C6.37402 24.0207 7.70133 24.6074 9.36475 24.6074C10.994 24.6074 12.3213 24.0207 13.3467 22.8472C14.167 21.9015 14.5771 20.6654 14.5771 19.1387C14.5771 17.6689 14.241 16.5467 13.5688 15.772C12.6346 14.701 11.2275 14.1655 9.34766 14.1655C7.23991 14.1655 5.45117 13.4819 3.98145 12.1147C2.84212 11.0552 2.27246 9.55697 2.27246 7.62012V5.97949L9.36475 0.510742C11.5181 0.658854 13.1758 1.20573 14.3379 2.15137C15.7507 3.30208 16.457 4.99398 16.457 7.22705L13.21 8.76514H13.0391V7.22705C13.0391 5.82568 12.6688 4.80029 11.9282 4.15088C11.2104 3.52425 10.356 3.21094 9.36475 3.21094C8.2596 3.21094 7.37093 3.55843 6.69873 4.25342C6.02653 4.9484 5.69043 5.93962 5.69043 7.22705C5.69043 8.46891 5.94678 9.37467 6.45947 9.94434C7.14307 10.7077 8.10579 11.0894 9.34766 11.0894C12.0706 11.0894 14.1841 11.7388 15.688 13.0376C17.2261 14.3706 17.9951 16.3929 17.9951 19.1045V21.0186L9.36475 27.6836ZM30.3853 27.6836C28.2319 27.5355 26.5742 26.9886 25.4121 26.043C23.9993 24.8809 23.293 23.189 23.293 20.9673V13.0034L30.3853 7.51758C32.5386 7.66569 34.1963 8.21257 35.3584 9.1582C36.7712 10.3089 37.4775 12.0008 37.4775 14.2339L26.9673 22.7275C27.1724 23.2972 27.4572 23.7358 27.8218 24.0435C28.5623 24.6701 29.4054 24.9834 30.3511 24.9834C31.3423 24.9834 32.2424 24.6359 33.0513 23.9409C33.7235 23.3599 34.0596 22.3687 34.0596 20.9673L37.3066 19.4292H37.4775V22.1978L30.3853 27.6836ZM26.7109 20.2153L34.0596 14.251C34.0596 12.8154 33.6836 11.7843 32.9316 11.1577C32.1911 10.5311 31.3423 10.2178 30.3853 10.2178C29.2801 10.2178 28.3914 10.5653 27.7192 11.2603C27.047 11.9552 26.7109 12.9465 26.7109 14.2339V20.2153ZM42.6045 27.6836V13.0034L49.6968 7.51758C51.8501 7.66569 53.5078 8.21257 54.6699 9.1582C56.0827 10.3089 56.7891 12.0008 56.7891 14.2339V26.1455L53.542 27.6836H53.3711V14.2339C53.3711 12.8097 53.0008 11.7843 52.2603 11.1577C51.5197 10.5311 50.6652 10.2178 49.6968 10.2178C48.6258 10.2178 47.7371 10.5653 47.0308 11.2603C46.3586 11.9211 46.0225 12.9123 46.0225 14.2339V26.1455L42.7754 27.6836H42.6045ZM62.7705 27.6836V18.0791H60.207V17.9082L61.1812 15.8574H62.7705V2.04883L64.582 1.19434H75.417V1.36523L74.4429 3.41602H66.1885V15.8574H74.2207V16.0283L73.2466 18.0791H66.1885V26.1455L62.9414 27.6836H62.7705ZM80.8857 27.6836V9.05566L84.1328 7.51758H84.3037V26.1455L81.0566 27.6836H80.8857ZM84.3037 0.510742V4.40723L81.0566 5.94531H80.8857V2.04883L84.1328 0.510742H84.3037ZM90.2852 27.6836V13.0034L97.3774 7.51758C99.5308 7.66569 101.188 8.21257 102.351 9.1582C103.763 10.3089 104.47 12.0008 104.47 14.2339V26.1455L101.223 27.6836H101.052V14.2339C101.052 12.8097 100.681 11.7843 99.9409 11.1577C99.2004 10.5311 98.3459 10.2178 97.3774 10.2178C96.3065 10.2178 95.4178 10.5653 94.7114 11.2603C94.0392 11.9211 93.7031 12.9123 93.7031 14.2339V26.1455L90.4561 27.6836H90.2852ZM115.834 24.9834C117.031 24.9834 117.919 24.6359 118.5 23.9409C119.173 23.132 119.509 22.1237 119.509 20.916C119.509 19.526 119.139 18.5007 118.398 17.8398C117.692 17.2132 116.837 16.8999 115.834 16.8999C114.638 16.8999 113.75 17.2474 113.168 17.9424C112.496 18.7513 112.16 19.7425 112.16 20.916C112.16 22.3402 112.53 23.3826 113.271 24.0435C113.989 24.6701 114.843 24.9834 115.834 24.9834ZM115.834 27.6836C113.715 27.5355 112.058 26.9886 110.861 26.043C109.449 24.9264 108.742 23.2345 108.742 20.9673V19.6855L115.834 14.1997C117.27 14.3022 118.495 14.5871 119.509 15.0542V14.2339C119.509 12.8553 119.139 11.8299 118.398 11.1577C117.692 10.5311 116.837 10.2178 115.834 10.2178C114.718 10.2178 113.829 10.5653 113.168 11.2603L112.229 10.3032L115.834 7.51758C117.988 7.66569 119.646 8.21257 120.808 9.1582C122.22 10.3089 122.927 12.0008 122.927 14.2339V26.1455L119.68 27.6836H119.509V24.8296L115.834 27.6836ZM128.054 27.6836V13.0034L135.146 7.51758C137.299 7.66569 138.957 8.21257 140.119 9.1582C141.532 10.3089 142.238 12.0008 142.238 14.2339V26.1455L138.991 27.6836H138.82V14.2339C138.82 12.8097 138.45 11.7843 137.709 11.1577C136.969 10.5311 136.114 10.2178 135.146 10.2178C134.075 10.2178 133.186 10.5653 132.48 11.2603C131.808 11.9211 131.472 12.9123 131.472 14.2339V26.1455L128.225 27.6836H128.054ZM161.55 19.4292V22.1978L155.671 26.7437L158.183 29.7173C158.035 31.8706 157.488 33.5283 156.542 34.6904H156.372L153.125 33.1523C154.355 32.3548 154.97 31.318 154.97 30.042C154.97 29.2786 154.799 28.4925 154.458 27.6836C152.304 27.5355 150.646 26.9886 149.484 26.043C148.072 24.8809 147.365 23.189 147.365 20.9673V13.0034L154.458 7.51758C156.611 7.66569 158.269 8.21257 159.431 9.1582C160.843 10.3089 161.55 12.0008 161.55 14.2339L158.303 15.772H158.132V14.2339C158.132 12.8097 157.762 11.7843 157.021 11.1577C156.28 10.5311 155.426 10.2178 154.458 10.2178C153.352 10.2178 152.464 10.5653 151.792 11.2603C151.119 11.9552 150.783 12.9465 150.783 14.2339V20.9673C150.783 22.3914 151.153 23.4168 151.894 24.0435C152.635 24.6701 153.489 24.9834 154.458 24.9834C155.494 24.9834 156.366 24.6359 157.072 23.9409C157.779 23.2459 158.132 22.2547 158.132 20.9673L161.379 19.4292H161.55ZM172.915 24.9834C174.111 24.9834 175 24.6359 175.581 23.9409C176.253 23.132 176.589 22.1237 176.589 20.916C176.589 19.526 176.219 18.5007 175.478 17.8398C174.772 17.2132 173.917 16.8999 172.915 16.8999C171.718 16.8999 170.83 17.2474 170.249 17.9424C169.576 18.7513 169.24 19.7425 169.24 20.916C169.24 22.3402 169.611 23.3826 170.351 24.0435C171.069 24.6701 171.923 24.9834 172.915 24.9834ZM172.915 27.6836C170.795 27.5355 169.138 26.9886 167.941 26.043C166.529 24.9264 165.822 23.2345 165.822 20.9673V19.6855L172.915 14.1997C174.35 14.3022 175.575 14.5871 176.589 15.0542V14.2339C176.589 12.8553 176.219 11.8299 175.478 11.1577C174.772 10.5311 173.917 10.2178 172.915 10.2178C171.798 10.2178 170.909 10.5653 170.249 11.2603L169.309 10.3032L172.915 7.51758C175.068 7.66569 176.726 8.21257 177.888 9.1582C179.3 10.3089 180.007 12.0008 180.007 14.2339V26.1455L176.76 27.6836H176.589V24.8296L172.915 27.6836Z" fill="white"/>
</svg>
